<?xml version="1.0" standalone="no"?>
<!DOCTYPE svg PUBLIC "-//W3C//DTD SVG 20010904//EN"
 "http://www.w3.org/TR/2001/REC-SVG-20010904/DTD/svg10.dtd">
<svg version="1.0" xmlns="http://www.w3.org/2000/svg"
 width="800.000000pt" height="800.000000pt" viewBox="0 0 800.000000 800.000000"
 preserveAspectRatio="xMidYMid meet">

<g transform="translate(0.000000,800.000000) scale(0.100000,-0.100000)"
fill="#000000" stroke="none">
<path d="M0 4000 l0 -4000 4000 0 4000 0 0 4000 0 4000 -4000 0 -4000 0 0
-4000z m5865 2811 c3 -5 1 -12 -5 -16 -5 -3 -10 1 -10 9 0 18 6 21 15 7z m357
-83 c-6 -6 -15 -9 -18 -5 -4 3 -4 14 0 23 5 13 9 15 18 6 9 -9 9 -15 0 -24z
m198 -112 c0 -8 -8 -22 -17 -32 -17 -17 -18 -17 -21 0 -4 18 14 46 29 46 5 0
9 -6 9 -14z m-940 -46 c0 -5 -4 -10 -10 -10 -5 0 -10 5 -10 10 0 6 5 10 10 10
6 0 10 -4 10 -10z m1126 -107 c-10 -10 -19 5 -10 18 6 11 8 11 12 0 2 -7 1
-15 -2 -18z m-528 -175 c22 -22 14 -69 -18 -105 -16 -18 -30 -40 -30 -48 0
-29 -207 -632 -234 -683 -8 -15 -56 -111 -106 -214 -51 -103 -99 -193 -106
-199 -8 -6 -14 -17 -14 -24 0 -8 -3 -15 -7 -17 -5 -1 -17 -19 -27 -38 -11 -19
-31 -55 -45 -80 -17 -31 -20 -41 -8 -31 9 7 17 12 17 9 0 -11 -38 -76 -55 -95
-11 -12 -24 -28 -30 -35 -17 -23 -118 -142 -135 -158 -8 -8 -24 -26 -35 -40
-15 -19 -16 -22 -2 -11 14 11 17 11 17 -1 0 -8 -28 -35 -62 -61 -69 -51 -152
-123 -128 -111 8 4 39 23 68 41 28 19 52 32 52 29 0 -6 -134 -96 -195 -131
-27 -15 -52 -31 -55 -34 -3 -3 -22 -17 -42 -31 -59 -39 -62 -70 -7 -70 18 0
28 -4 24 -10 -3 -5 -19 -10 -36 -10 -34 0 -39 -16 -8 -25 26 -9 133 2 214 20
78 18 255 99 255 118 0 18 44 41 64 34 26 -10 20 -52 -9 -65 -14 -6 -31 -9
-40 -6 -8 3 -43 -10 -78 -29 -97 -53 -210 -88 -324 -100 -89 -9 -103 -13 -103
-29 0 -10 7 -18 17 -18 9 0 14 -3 10 -6 -3 -3 -29 -1 -57 6 -66 16 -78 6 -55
-43 9 -20 15 -44 13 -54 -2 -10 6 -26 17 -35 18 -16 18 -17 3 -18 -10 0 -18
-4 -18 -8 0 -23 82 -107 195 -199 56 -46 37 -41 -47 14 -40 25 -88 54 -106 65
l-32 18 16 -33 c38 -73 185 -224 310 -317 l77 -57 46 28 c25 16 64 32 86 37
54 12 127 -7 164 -42 15 -14 31 -26 35 -26 9 0 190 156 230 199 31 32 50 39
61 21 10 -17 -16 -41 -36 -35 -13 5 -42 -16 -106 -77 -152 -143 -143 -132
-132 -170 25 -90 -8 -179 -81 -215 -75 -38 -163 -28 -232 28 -39 30 -39 30
-108 20 -356 -56 -708 100 -972 432 -39 48 -76 87 -83 87 -8 0 -18 22 -24 52
-7 28 -15 56 -20 62 -15 18 -168 329 -175 356 -4 14 24 -34 62 -105 83 -158
170 -295 186 -295 7 0 18 -16 25 -35 18 -50 116 -177 198 -256 206 -202 510
-313 774 -285 78 9 98 19 84 42 -15 23 -115 53 -162 49 -105 -10 -288 77 -464
221 -88 73 -152 141 -224 239 -67 91 -78 125 -17 55 92 -107 236 -242 310
-292 149 -101 354 -186 487 -203 l51 -6 11 41 11 41 -87 56 c-149 97 -261 197
-405 366 -32 37 -64 67 -71 67 -8 0 -16 6 -18 13 -3 6 -6 -4 -8 -23 -3 -46 -2
-52 6 -72 4 -11 3 -18 -3 -18 -11 0 -24 31 -27 62 -2 21 -55 102 -61 95 -3 -3
2 -19 11 -36 20 -39 6 -40 -20 -2 -14 22 -23 27 -32 19 -10 -8 -13 -7 -14 3
-1 18 -17 -21 -18 -43 -1 -13 78 -120 108 -148 4 -3 12 -14 20 -25 7 -11 -21
16 -63 60 -42 44 -97 110 -122 146 -65 97 -68 99 -111 56 -24 -25 -34 -42 -30
-56 3 -14 1 -18 -9 -14 -8 3 -21 0 -29 -7 -17 -14 -20 1 -4 17 9 9 9 20 0 45
-10 31 -10 32 5 13 15 -20 15 -20 27 -1 45 73 47 77 31 102 -9 13 -24 26 -34
29 -10 3 -20 16 -22 27 -2 18 -11 22 -49 24 -42 3 -46 1 -42 -17 6 -22 4 -23
-31 -9 -18 6 -26 6 -26 -1 0 -6 -4 -7 -10 -4 -14 8 -13 1 5 -42 8 -20 14 -38
11 -40 -2 -2 -9 11 -17 29 -7 18 -16 35 -20 38 -5 4 -39 76 -39 84 0 1 12 2
27 1 14 0 28 6 30 13 3 6 -2 12 -11 12 -14 0 -20 22 -15 56 0 4 -11 14 -25 23
-20 13 -23 20 -14 29 21 21 -21 133 -56 150 -17 9 -18 11 -3 11 20 1 20 3 6
35 -13 28 -34 34 -121 36 -61 1 -121 -19 -150 -50 -11 -11 -32 -20 -48 -20
-26 0 -120 -65 -170 -120 -91 -97 -124 -145 -125 -179 0 -30 -4 -36 -21 -36
-11 0 -28 -6 -38 -14 -15 -13 -16 -12 -6 13 22 58 176 243 259 311 33 28 61
53 61 57 0 4 -14 2 -31 -4 -48 -17 -45 -2 5 22 25 12 48 26 52 31 3 5 17 9 32
9 15 0 58 9 95 19 71 21 163 27 232 16 l40 -7 -28 26 c-15 14 -40 29 -55 32
-15 4 -38 15 -51 26 -23 17 -23 18 -3 18 11 0 23 -4 26 -9 3 -5 21 -14 38 -20
l33 -11 -30 25 c-16 14 -37 25 -46 25 -9 0 -19 6 -22 13 -2 7 -28 24 -55 37
-28 14 -51 28 -52 33 0 12 13 8 49 -14 18 -11 38 -18 45 -16 25 9 -218 147
-259 147 -13 0 -64 19 -106 41 -9 4 -27 6 -40 3 -24 -5 -24 -4 1 6 13 6 36 8
50 5 14 -4 36 -9 50 -11 106 -20 258 -96 395 -199 55 -41 103 -75 108 -75 15
0 6 30 -18 58 -29 35 -31 44 -9 35 16 -6 -63 124 -137 223 -22 30 -42 64 -44
75 -5 22 -178 262 -298 411 -91 112 -289 306 -361 353 l-50 32 -54 -29 c-41
-21 -68 -28 -112 -28 l-58 0 -11 -37 -10 -38 5 37 c4 33 0 42 -36 78 -49 49
-60 75 -60 141 0 95 40 147 129 169 73 17 124 0 184 -61 26 -27 52 -60 57 -73
7 -20 19 -25 92 -35 89 -13 203 -49 283 -88 122 -61 286 -206 379 -338 49 -69
51 -73 14 -31 -93 108 -105 119 -111 109 -4 -6 25 -46 64 -89 38 -42 75 -87
81 -98 6 -12 -14 6 -43 39 -29 33 -103 112 -164 175 -60 63 -101 108 -90 100
11 -8 23 -20 28 -27 4 -7 15 -9 24 -6 12 5 14 3 8 -7 -6 -9 -4 -11 5 -5 10 6
3 17 -26 42 -52 45 -71 55 -79 43 -3 -5 -1 -10 4 -10 6 0 11 -5 11 -11 0 -7
-11 -4 -27 7 -177 116 -332 175 -439 165 -11 -1 -34 -44 -34 -64 0 -7 33 -32
73 -56 166 -102 354 -269 485 -431 48 -59 188 -269 332 -496 62 -97 137 -187
151 -178 5 3 20 -7 35 -21 14 -14 29 -23 34 -20 4 3 2 31 -5 62 -13 56 -12 91
1 39 3 -14 9 -26 13 -26 3 0 12 -12 18 -27 7 -16 24 -41 38 -58 l25 -30 -6 35
-6 35 26 -40 c14 -22 26 -34 26 -27 0 20 21 14 42 -13 11 -14 25 -25 32 -25
19 0 36 61 37 136 1 82 16 147 18 77 1 -24 6 -43 11 -43 20 0 23 -31 5 -44
-15 -11 -17 -22 -11 -69 7 -51 10 -58 34 -63 15 -4 33 -11 39 -16 20 -16 43
-1 58 36 19 44 29 50 50 30 19 -19 19 -19 45 32 18 35 19 36 14 9 -4 -16 -15
-46 -25 -65 -27 -56 -34 -106 -15 -113 20 -8 40 11 91 90 41 64 67 86 41 34
-9 -16 -12 -31 -9 -35 4 -3 -3 -16 -14 -29 -11 -12 -23 -30 -26 -40 -6 -15 -4
-16 13 -7 18 10 20 7 20 -20 0 -16 3 -30 6 -30 10 0 93 67 158 129 l60 56 -55
-65 c-30 -35 -71 -80 -91 -100 l-37 -36 29 4 c16 2 28 9 27 14 -1 6 8 11 20
13 48 4 236 170 358 316 186 223 430 630 427 713 -1 53 7 75 37 90 16 9 31 12
35 9 16 -16 48 52 109 224 117 336 120 347 112 412 -6 54 -5 60 16 75 28 19
32 19 47 4z m532 -202 c0 -18 -17 -29 -30 -21 -8 5 -7 11 1 21 15 18 29 18 29
0z m-904 -20 c6 -16 -12 -56 -26 -56 -15 0 -22 40 -10 55 16 19 29 19 36 1z
m667 -58 c5 -16 -4 -30 -32 -57 -23 -22 -91 -128 -171 -266 -128 -220 -292
-479 -311 -491 -6 -3 15 32 45 78 66 100 146 227 202 323 174 298 194 336 194
373 0 43 14 62 46 62 14 0 24 -8 27 -22z m-1181 -70 c6 -17 -1 -38 -13 -38 -5
0 -9 11 -9 25 0 26 14 34 22 13z m-1442 -119 c0 -11 -27 -12 -34 0 -3 4 -3 11
0 14 8 8 34 -3 34 -14z m1740 -33 c0 -13 -7 -26 -15 -30 -11 -4 -15 1 -15 18
0 12 3 26 7 29 13 14 23 6 23 -17z m1100 -31 c0 -8 -7 -15 -15 -15 -16 0 -20
12 -8 23 11 12 23 8 23 -8z m-790 -4 c0 -12 -20 -25 -27 -18 -7 7 6 27 18 27
5 0 9 -4 9 -9z m-805 -61 c7 -22 -11 -53 -26 -44 -5 3 -9 15 -9 28 0 39 24 50
35 16z m-2128 -52 c-3 -8 -6 -5 -6 6 -1 11 2 17 5 13 3 -3 4 -12 1 -19z m-119
-21 c4 -21 -25 -34 -40 -19 -8 8 -8 16 2 27 16 19 34 15 38 -8z m1132 -3 c0
-8 -7 -14 -15 -14 -15 0 -21 21 -9 33 10 9 24 -2 24 -19z m-1025 -34 c-4 -17
-9 -29 -12 -26 -3 2 -2 19 2 36 4 17 9 29 12 26 3 -2 2 -19 -2 -36z m2419 -29
c3 -5 -1 -14 -9 -21 -13 -10 -15 -9 -15 9 0 21 14 28 24 12z m354 -28 c3 -22
-34 -57 -50 -47 -13 8 -9 36 9 56 20 22 37 19 41 -9z m1042 23 c0 -3 -4 -8
-10 -11 -5 -3 -10 -1 -10 4 0 6 5 11 10 11 6 0 10 -2 10 -4z m-3843 -73 c-8
-32 -23 -87 -32 -123 -24 -98 -65 -230 -85 -276 -10 -23 -22 -59 -26 -79 -4
-21 -16 -61 -26 -89 -11 -28 -23 -68 -28 -90 -4 -21 -13 -42 -20 -46 -7 -4
-10 -12 -7 -17 8 -12 -14 -83 -25 -83 -4 0 -8 -8 -8 -17 0 -35 -21 -93 -40
-111 -11 -10 -66 -132 -123 -272 -58 -140 -121 -290 -141 -334 -39 -86 -41
-90 -26 -81 6 4 -3 -17 -20 -45 -21 -35 -30 -64 -30 -94 0 -48 -18 -71 -67
-85 l-31 -9 0 44 c-1 39 3 47 35 71 46 35 143 234 274 558 87 215 99 257 79
270 -18 11 -10 35 15 45 17 6 33 26 46 57 42 97 202 567 264 775 31 103 49
128 22 31z m-207 16 c0 -5 -7 -9 -15 -9 -15 0 -20 12 -9 23 8 8 24 -1 24 -14z
m1405 1 c0 -22 -29 -18 -33 3 -3 14 1 18 15 15 10 -2 18 -10 18 -18z m2126 -3
c-13 -13 -26 -3 -16 12 3 6 11 8 17 5 6 -4 6 -10 -1 -17z m-2793 -15 c2 -14
-2 -22 -12 -22 -19 0 -29 17 -22 36 8 22 30 12 34 -14z m567 -102 c3 -5 1 -10
-4 -10 -6 0 -11 5 -11 10 0 6 2 10 4 10 3 0 8 -4 11 -10z m2103 -2 c-2 -6 -10
-14 -16 -16 -7 -2 -10 2 -6 12 7 18 28 22 22 4z m132 -38 c0 -5 -4 -10 -10
-10 -5 0 -10 5 -10 10 0 6 5 10 10 10 6 0 10 -4 10 -10z m-3770 -34 c0 -19
-17 -29 -37 -22 -12 5 -13 9 -3 21 16 19 40 19 40 1z m3918 -8 c14 -18 -2 -55
-28 -63 -39 -12 -67 34 -38 63 16 16 53 15 66 0z m-2138 -23 c0 -8 -4 -15 -9
-15 -13 0 -22 16 -14 24 11 11 23 6 23 -9z m1800 -14 c0 -14 -18 -23 -30 -16
-6 4 -8 11 -5 16 8 12 35 12 35 0z m-3569 -44 c-8 -8 -11 -7 -11 4 0 20 13 34
18 19 3 -7 -1 -17 -7 -23z m4209 24 c0 -5 -7 -12 -16 -15 -24 -9 -28 -7 -14 9
14 17 30 20 30 6z m-3249 -44 c-13 -13 -26 -3 -16 12 3 6 11 8 17 5 6 -4 6
-10 -1 -17z m1641 -22 c0 -5 -5 -11 -11 -13 -6 -2 -11 4 -11 13 0 9 5 15 11
13 6 -2 11 -8 11 -13z m833 -15 c-11 -22 -13 -35 -5 -49 5 -11 7 -26 4 -34 -5
-15 -46 -37 -67 -37 -7 0 -29 -19 -50 -42 l-38 -43 30 49 c22 36 29 56 24 78
-6 31 16 57 48 58 8 0 26 11 39 25 31 33 34 32 15 -5z m-2845 -50 c0 -35 -4
-42 -27 -51 -33 -13 -57 -1 -61 29 -4 27 31 62 63 62 23 0 25 -4 25 -40z
m2715 20 c0 -8 -10 -16 -22 -18 -22 -3 -32 16 -16 32 12 11 38 2 38 -14z
m-3187 -8 c2 -7 -3 -12 -12 -12 -9 0 -16 7 -16 16 0 17 22 14 28 -4z m733 -52
c10 -6 19 -17 19 -25 0 -14 -29 -35 -49 -35 -6 0 -15 9 -21 19 -7 15 -6 23 6
35 18 19 20 19 45 6z m1029 -40 c0 -5 -4 -10 -10 -10 -5 0 -10 5 -10 10 0 6 5
10 10 10 6 0 10 -4 10 -10z m575 -30 c9 -15 -4 -50 -19 -50 -8 0 -19 7 -26 15
-10 12 -10 18 0 30 14 17 36 20 45 5z m-2495 -45 c0 -8 -7 -15 -15 -15 -16 0
-20 12 -8 23 11 12 23 8 23 -8z m1945 5 c3 -5 1 -10 -4 -10 -6 0 -11 5 -11 10
0 6 2 10 4 10 3 0 8 -4 11 -10z m-1250 -29 c7 -12 -12 -24 -25 -16 -11 7 -4
25 10 25 5 0 11 -4 15 -9z m275 -21 c-8 -5 -25 -10 -38 -10 -12 0 -48 -9 -79
-20 -73 -26 -89 -25 -38 2 33 18 95 32 155 37 13 1 13 0 0 -9z m2720 -20 c0
-11 -7 -20 -15 -20 -15 0 -21 21 -8 33 12 13 23 7 23 -13z m465 0 c-3 -5 -11
-10 -16 -10 -6 0 -7 5 -4 10 3 6 11 10 16 10 6 0 7 -4 4 -10z m-3385 -34 c0
-3 -4 -8 -10 -11 -5 -3 -10 -1 -10 4 0 6 5 11 10 11 6 0 10 -2 10 -4z m2840
-31 c0 -16 -27 -32 -37 -21 -7 7 16 36 28 36 5 0 9 -7 9 -15z m-1434 -42 c-10
-10 -19 5 -10 18 6 11 8 11 12 0 2 -7 1 -15 -2 -18z m-1149 -23 c1 -11 -4 -20
-13 -20 -8 0 -14 2 -14 4 0 2 -3 11 -6 20 -4 11 0 16 13 16 12 0 19 -8 20 -20z
m2237 5 c3 -8 3 -22 0 -30 -7 -17 -47 -30 -63 -20 -15 9 -14 52 2 58 25 11 55
7 61 -8z m-1957 -1 c-3 -3 -12 -4 -19 -1 -8 3 -5 6 6 6 11 1 17 -2 13 -5z
m1463 -34 c-11 -16 -26 -33 -32 -36 -7 -4 1 9 16 29 34 44 46 50 16 7z m-3010
6 c0 -22 -29 -41 -42 -28 -8 8 -8 15 2 27 16 19 40 20 40 1z m2184 -2 c3 -8 2
-12 -4 -9 -6 3 -10 10 -10 16 0 14 7 11 14 -7z m1548 -15 c3 -9 11 -8 28 1 24
13 25 12 8 -7 -10 -11 -18 -29 -18 -41 0 -27 -26 -52 -54 -52 -13 0 -29 -7
-36 -15 -7 -8 -17 -12 -23 -8 -6 4 -8 0 -4 -10 8 -22 -8 -30 -23 -12 -11 13
-9 20 9 38 11 13 21 35 21 49 0 42 80 92 92 57z m-3312 -7 c0 -13 -12 -22 -22
-16 -10 6 -1 24 13 24 5 0 9 -4 9 -8z m2340 -29 c-11 -17 -11 -17 -6 0 3 10 6
24 7 30 0 9 2 9 5 0 3 -7 0 -20 -6 -30z m-2538 12 c0 -5 -5 -11 -11 -13 -6 -2
-11 4 -11 13 0 9 5 15 11 13 6 -2 11 -8 11 -13z m595 -31 c8 -21 -13 -42 -28
-27 -13 13 -5 43 11 43 6 0 13 -7 17 -16z m2153 12 c0 -2 -8 -10 -17 -17 -16
-13 -17 -12 -4 4 13 16 21 21 21 13z m-1303 -12 c-3 -3 -12 -4 -19 -1 -8 3 -5
6 6 6 11 1 17 -2 13 -5z m-227 -44 c0 -5 -4 -10 -10 -10 -5 0 -10 5 -10 10 0
6 5 10 10 10 6 0 10 -4 10 -10z m1828 -20 c-12 -16 -26 -30 -32 -30 -5 0 3 14
19 30 16 17 30 30 32 30 2 0 -6 -13 -19 -30z m932 20 c0 -5 -10 -10 -22 -10
-19 0 -20 2 -8 10 19 13 30 13 30 0z m-2895 -30 c-3 -5 -10 -10 -16 -10 -5 0
-9 5 -9 10 0 6 7 10 16 10 8 0 12 -4 9 -10z m1500 -10 c7 -12 -10 -37 -34 -50
-16 -8 -18 -1 -12 53 1 11 39 8 46 -3z m-1761 -62 c5 -9 7 -20 3 -25 -11 -10
-41 11 -45 31 -5 23 26 18 42 -6z m2524 -80 c-53 -131 -129 -352 -124 -365 3
-8 -3 -31 -13 -51 -29 -57 -92 -293 -116 -435 -11 -70 -23 -125 -26 -122 -15
14 44 387 83 520 54 190 144 413 192 478 11 15 21 27 23 27 1 0 -7 -24 -19
-52z m257 -8 c-3 -5 -16 -15 -28 -21 -19 -9 -19 -8 3 10 28 23 34 26 25 11z
m-2919 -45 c7 -18 -13 -45 -33 -45 -19 0 -28 27 -13 45 16 19 39 19 46 0z
m2854 -1 c-8 -8 -23 -20 -34 -25 -13 -7 -9 -1 9 15 34 29 43 33 25 10z m-3760
-23 c0 -5 -6 -14 -14 -20 -16 -13 -32 2 -21 19 8 12 35 13 35 1z m591 -36
c-31 -34 -41 -53 -41 -79 0 -37 -15 -54 -51 -58 -20 -3 -25 2 -27 25 -4 32 13
57 37 57 9 0 39 23 66 50 61 62 72 66 16 5z m3414 -24 c0 -8 -8 -19 -17 -25
-22 -13 -44 5 -34 29 7 20 51 16 51 -4z m-366 -18 c-8 -9 -38 -42 -68 -72 -29
-31 -67 -75 -83 -99 -16 -24 -32 -41 -35 -38 -7 7 49 78 126 159 61 63 91 88
60 50z m-1809 -29 c0 -8 -4 -12 -10 -9 -5 3 -10 13 -10 21 0 8 5 12 10 9 6 -3
10 -13 10 -21z m-1990 -32 c0 -13 -12 -22 -22 -16 -10 6 -1 24 13 24 5 0 9 -4
9 -8z m98 -138 c-2 -12 -13 -20 -31 -22 -22 -3 -27 1 -27 18 0 12 9 24 23 29
26 10 40 0 35 -25z m3702 12 c0 -2 -8 -10 -17 -17 -16 -13 -17 -12 -4 4 13 16
21 21 21 13z m-2080 -26 c0 -5 -4 -10 -10 -10 -5 0 -10 5 -10 10 0 6 5 10 10
10 6 0 10 -4 10 -10z m2030 -40 c-12 -16 -24 -30 -26 -30 -3 0 4 14 16 30 12
17 24 30 26 30 3 0 -4 -13 -16 -30z m-685 -30 c18 -20 18 -21 -1 -35 -25 -19
-47 -15 -59 13 -5 12 -14 22 -20 22 -5 0 -3 5 5 10 24 16 56 11 75 -10z
m-1878 -52 c-3 -8 -6 -5 -6 6 -1 11 2 17 5 13 3 -3 4 -12 1 -19z m2503 -8 c-6
-11 -13 -20 -16 -20 -2 0 0 9 6 20 6 11 13 20 16 20 2 0 0 -9 -6 -20z m-1536
-46 c3 -8 2 -12 -4 -9 -6 3 -10 10 -10 16 0 14 7 11 14 -7z m1759 10 c11 -12
-13 -44 -33 -44 -25 0 -26 25 -2 39 20 12 27 13 35 5z m-1684 -131 c36 -66 35
-80 -1 -25 -13 20 -29 36 -35 35 -5 -1 -10 11 -10 27 0 38 10 31 46 -37z
m-1589 37 c0 -24 -26 -38 -42 -22 -8 8 -8 15 2 27 18 21 40 19 40 -5z m-680 0
c0 -5 -4 -10 -10 -10 -5 0 -10 5 -10 10 0 6 5 10 10 10 6 0 10 -4 10 -10z
m-70 -100 c-18 -11 -24 -6 -16 16 5 14 9 15 19 5 9 -9 9 -14 -3 -21z m2335 10
c3 -5 -1 -10 -10 -10 -9 0 -13 5 -10 10 3 6 8 10 10 10 2 0 7 -4 10 -10z
m-2675 -17 c0 -14 -34 -43 -52 -43 -23 0 -24 26 0 39 19 12 52 14 52 4z m2761
-45 c16 -29 2 -21 -22 15 -17 23 -18 28 -6 18 10 -8 23 -23 28 -33z m349 -63
c19 -19 32 -35 29 -35 -3 0 -20 16 -39 35 -19 19 -32 35 -29 35 3 0 20 -16 39
-35z m-2782 -58 c5 -23 -15 -47 -40 -47 -24 0 -33 23 -18 50 14 26 53 24 58
-3z m980 -84 c-4 -34 -28 -43 -28 -10 0 25 7 37 22 37 5 0 8 -12 6 -27z m-828
-3 c-6 -11 -13 -20 -16 -20 -2 0 0 9 6 20 6 11 13 20 16 20 2 0 0 -9 -6 -20z
m1910 0 c0 -5 -4 -10 -10 -10 -5 0 -10 5 -10 10 0 6 5 10 10 10 6 0 10 -4 10
-10z m400 -86 c0 -17 -22 -14 -28 4 -2 7 3 12 12 12 9 0 16 -7 16 -16z m-2600
-28 c0 -17 -27 -29 -35 -16 -4 6 -3 15 0 20 9 15 35 12 35 -4z m2850 -1 c0 -8
-7 -15 -15 -15 -8 0 -15 7 -15 15 0 8 7 15 15 15 8 0 15 -7 15 -15z m-2300
-29 c0 -3 -4 -8 -10 -11 -5 -3 -10 -1 -10 4 0 6 5 11 10 11 6 0 10 -2 10 -4z
m128 -87 c4 -32 -20 -64 -42 -56 -21 8 -21 45 1 69 21 23 37 18 41 -13z m-630
-171 c-2 -13 -11 -24 -20 -26 -21 -4 -24 18 -6 36 19 19 30 14 26 -10z m-348
2 c0 -5 -7 -10 -16 -10 -8 0 -12 5 -9 10 3 6 10 10 16 10 5 0 9 -4 9 -10z
m740 -115 c0 -16 -6 -25 -15 -25 -18 0 -18 5 -5 31 14 26 20 24 20 -6z m510
-1 c0 -8 -4 -14 -10 -14 -5 0 -10 9 -10 21 0 11 5 17 10 14 6 -3 10 -13 10
-21z m-724 -111 c-10 -10 -19 5 -10 18 6 11 8 11 12 0 2 -7 1 -15 -2 -18z
m2912 -380 l3 -43 -145 0 -146 0 0 -75 0 -75 125 0 125 0 0 -40 0 -40 -125 0
-125 0 0 -75 0 -75 145 0 145 0 0 -40 0 -40 -195 0 -195 0 0 275 0 275 193 -2
192 -3 3 -42z m186 -247 c28 -66 56 -121 62 -123 6 -2 21 20 33 49 12 29 36
86 53 126 l32 72 49 0 c35 0 48 -3 44 -12 -3 -7 -19 -44 -36 -83 -16 -38 -50
-117 -73 -175 l-44 -105 -50 -3 c-33 -2 -54 2 -61 10 -22 27 -160 367 -150
371 5 1 28 0 50 -3 l41 -5 50 -119z m624 115 c50 -26 90 -70 102 -112 34 -117
-20 -224 -129 -256 -103 -29 -219 4 -267 77 -29 43 -43 124 -30 174 9 38 65
97 111 117 55 26 163 25 213 0z"/>
<path d="M3570 5781 c19 -16 38 -27 43 -24 7 4 -57 53 -71 53 -4 0 9 -14 28
-29z"/>
<path d="M3770 5623 c0 -17 27 -46 33 -36 4 6 -2 18 -13 28 -11 10 -20 14 -20
8z"/>
<path d="M5730 5413 c0 -6 -3 -20 -7 -30 -7 -17 -6 -17 11 0 14 14 16 21 7 30
-8 8 -11 8 -11 0z"/>
<path d="M4654 4577 c-6 -7 -8 -21 -4 -32 6 -17 7 -17 23 5 23 33 6 56 -19 27z"/>
<path d="M5144 4468 l-19 -23 23 19 c12 11 22 21 22 23 0 8 -8 2 -26 -19z"/>
<path d="M5096 4431 c-14 -15 -15 -21 -4 -27 7 -4 10 -3 5 1 -4 5 0 17 10 27
9 10 14 18 11 18 -3 0 -13 -9 -22 -19z"/>
<path d="M3970 4411 c0 -8 71 -33 77 -27 2 1 -15 10 -37 19 -22 8 -40 12 -40
8z"/>
<path d="M3977 4358 c4 -7 15 -33 23 -58 15 -44 16 -45 54 -43 21 1 41 5 44 7
11 12 -24 70 -52 87 -36 22 -82 26 -69 7z"/>
<path d="M4036 4198 c8 -28 34 -68 43 -68 3 0 23 5 43 10 33 9 36 13 27 29
-12 18 -45 35 -92 45 -26 6 -28 5 -21 -16z"/>
<path d="M4020 4090 c0 -5 5 -10 11 -10 5 0 7 5 4 10 -3 6 -8 10 -11 10 -2 0
-4 -4 -4 -10z"/>
<path d="M5460 2213 c-55 -49 -51 -147 8 -193 31 -25 108 -27 140 -4 32 22 52
67 52 115 0 33 -6 47 -34 75 -30 30 -40 34 -85 34 -41 0 -56 -5 -81 -27z"/>
</g>
</svg>
